<mxfile host="app.diagrams.net" modified="2024-07-04T20:27:09.108Z" agent="Mozilla/5.0 (Macintosh; Intel Mac OS X 10_15_7) AppleWebKit/537.36 (KHTML, like Gecko) Chrome/126.0.0.0 Safari/537.36" etag="f4HnFI15chl-QXG4Ll4D" version="24.6.3" type="google" pages="3">
  <diagram name="Page-1" id="q6mfoMBMoyVhWZRuocSt">
    <mxGraphModel grid="1" page="1" gridSize="10" guides="1" tooltips="1" connect="1" arrows="1" fold="1" pageScale="1" pageWidth="1169" pageHeight="827" math="0" shadow="0">
      <root>
        <mxCell id="0" />
        <mxCell id="1" parent="0" />
        <mxCell id="txo1UYpimrwUv5Up8bq3-57" value="hh" style="rounded=0;whiteSpace=wrap;html=1;" vertex="1" parent="1">
          <mxGeometry x="72.5" y="-170" width="900" height="340" as="geometry" />
        </mxCell>
        <mxCell id="txo1UYpimrwUv5Up8bq3-36" value="hh" style="rounded=0;whiteSpace=wrap;html=1;strokeWidth=2;" vertex="1" parent="1">
          <mxGeometry x="72.5" y="186.75" width="900" height="423.25" as="geometry" />
        </mxCell>
        <mxCell id="_s_I2yqN7a8-muY6BJTi-9" value="" style="rounded=1;whiteSpace=wrap;html=1;fontSize=10;" vertex="1" parent="1">
          <mxGeometry x="668.5" y="313.75" width="90" height="38.25" as="geometry" />
        </mxCell>
        <mxCell id="txo1UYpimrwUv5Up8bq3-22" value="Program/Module Management Service" style="rounded=1;whiteSpace=wrap;html=1;fontSize=10;" vertex="1" parent="1">
          <mxGeometry x="678.5" y="323.75" width="90" height="40" as="geometry" />
        </mxCell>
        <mxCell id="txo1UYpimrwUv5Up8bq3-11" value="" style="rounded=1;whiteSpace=wrap;html=1;" vertex="1" parent="1">
          <mxGeometry x="456" y="297" width="90" height="36.75" as="geometry" />
        </mxCell>
        <mxCell id="txo1UYpimrwUv5Up8bq3-4" value="" style="rounded=1;whiteSpace=wrap;html=1;" vertex="1" parent="1">
          <mxGeometry x="216" y="273.75" width="97.25" height="35.5" as="geometry" />
        </mxCell>
        <mxCell id="P3KmuDMrMunuuuSJQMUj-18" value="" style="rounded=0;whiteSpace=wrap;html=1;" vertex="1" parent="1">
          <mxGeometry x="750" y="662.5" width="210" height="190" as="geometry" />
        </mxCell>
        <mxCell id="iTjUPMfH0YsU74nxrO1I-1" value="Administrator GUI" style="rounded=1;whiteSpace=wrap;html=1;" vertex="1" parent="1">
          <mxGeometry x="396" y="-95" width="238" height="20" as="geometry" />
        </mxCell>
        <mxCell id="dwM2Itb2zWTtOIo7dE9D-3" value="Program/Module Management" style="rounded=1;whiteSpace=wrap;html=1;fontSize=10;" vertex="1" parent="1">
          <mxGeometry x="660.5" y="-15" width="89.5" height="45" as="geometry" />
        </mxCell>
        <mxCell id="dwM2Itb2zWTtOIo7dE9D-4" value="&lt;font style=&quot;font-size: 10px;&quot;&gt;Tutor Profile Management&lt;/font&gt;" style="rounded=1;whiteSpace=wrap;html=1;" vertex="1" parent="1">
          <mxGeometry x="770" y="-15" width="70" height="45" as="geometry" />
        </mxCell>
        <mxCell id="dwM2Itb2zWTtOIo7dE9D-5" value="Student&amp;nbsp; Record Management" style="rounded=1;whiteSpace=wrap;html=1;fontSize=10;" vertex="1" parent="1">
          <mxGeometry x="220" y="-10" width="90" height="40" as="geometry" />
        </mxCell>
        <mxCell id="dwM2Itb2zWTtOIo7dE9D-6" value="Admin Staff Records Management" style="rounded=1;whiteSpace=wrap;html=1;fontSize=10;" vertex="1" parent="1">
          <mxGeometry x="540" y="-12.5" width="100" height="42.5" as="geometry" />
        </mxCell>
        <mxCell id="V3qvsb_bBbjR4FIhCiOS-1" value="Figure 1. Administrator Microservice" style="text;html=1;align=center;verticalAlign=middle;whiteSpace=wrap;rounded=0;" vertex="1" parent="1">
          <mxGeometry x="89.5" y="-150" width="220" height="40" as="geometry" />
        </mxCell>
        <mxCell id="gf2tkm5U6kBsz2PE50tO-3" value="Student Record Service" style="rounded=1;whiteSpace=wrap;html=1;fontSize=10;" vertex="1" parent="1">
          <mxGeometry x="221.75" y="282" width="97.25" height="35.5" as="geometry" />
        </mxCell>
        <mxCell id="gf2tkm5U6kBsz2PE50tO-6" value="University Account Management Service" style="rounded=1;whiteSpace=wrap;html=1;fontSize=10;" vertex="1" parent="1">
          <mxGeometry x="96" y="272.75" width="110" height="41" as="geometry" />
        </mxCell>
        <mxCell id="_s_I2yqN7a8-muY6BJTi-6" value="Admin Staff Records Management Service" style="rounded=1;whiteSpace=wrap;html=1;fontSize=10;" vertex="1" parent="1">
          <mxGeometry x="527" y="197.25" width="73" height="51" as="geometry" />
        </mxCell>
        <mxCell id="_s_I2yqN7a8-muY6BJTi-8" value="Tutor Profile Management Service" style="rounded=1;whiteSpace=wrap;html=1;fontSize=10;" vertex="1" parent="1">
          <mxGeometry x="781" y="313.75" width="82.5" height="40" as="geometry" />
        </mxCell>
        <mxCell id="YEd23fb4mN3ygYEI0RXa-6" value="Load Balancer" style="rounded=1;whiteSpace=wrap;html=1;fontSize=10;" vertex="1" parent="1">
          <mxGeometry x="323" y="276" width="100" height="21" as="geometry" />
        </mxCell>
        <mxCell id="bpr8gSbdeEr4EQAaBBP3-1" value="Cluster of Services in the Cloud" style="text;html=1;align=center;verticalAlign=middle;whiteSpace=wrap;rounded=0;" vertex="1" parent="1">
          <mxGeometry x="72.5" y="190" width="254" height="20" as="geometry" />
        </mxCell>
        <mxCell id="P3KmuDMrMunuuuSJQMUj-5" value="University Department Database" style="rounded=1;whiteSpace=wrap;html=1;dashed=1;fontSize=10;" vertex="1" parent="1">
          <mxGeometry x="91.5" y="373.75" width="80" height="46" as="geometry" />
        </mxCell>
        <mxCell id="P3KmuDMrMunuuuSJQMUj-21" value="Student&amp;nbsp; GUI" style="text;html=1;align=center;verticalAlign=middle;whiteSpace=wrap;rounded=0;fontSize=12;" vertex="1" parent="1">
          <mxGeometry x="780.75" y="797" width="148.5" height="30" as="geometry" />
        </mxCell>
        <mxCell id="P3KmuDMrMunuuuSJQMUj-35" value="Authentication Key" style="rounded=1;whiteSpace=wrap;html=1;dashed=1;fontSize=10;" vertex="1" parent="1">
          <mxGeometry x="476" y="90" width="63" height="40" as="geometry" />
        </mxCell>
        <mxCell id="P3KmuDMrMunuuuSJQMUj-40" value="Access Controller" style="rounded=1;whiteSpace=wrap;html=1;fontSize=10;" vertex="1" parent="1">
          <mxGeometry x="396" y="230" width="63" height="30" as="geometry" />
        </mxCell>
        <mxCell id="P3KmuDMrMunuuuSJQMUj-34" value="Access Authentification" style="rounded=1;whiteSpace=wrap;html=1;fontSize=10;" vertex="1" parent="1">
          <mxGeometry x="430" y="-15" width="97" height="50" as="geometry" />
        </mxCell>
        <mxCell id="txo1UYpimrwUv5Up8bq3-2" value="Student&amp;nbsp; Profile Management Service" style="rounded=1;whiteSpace=wrap;html=1;fontSize=10;" vertex="1" parent="1">
          <mxGeometry x="876" y="309.25" width="92.5" height="40" as="geometry" />
        </mxCell>
        <mxCell id="MFeHae9LS5_dGUs5y4kA-2" value="University Account Management" style="rounded=1;whiteSpace=wrap;html=1;fontSize=10;" vertex="1" parent="1">
          <mxGeometry x="100" y="-10" width="110" height="40" as="geometry" />
        </mxCell>
        <mxCell id="y1LTIAWiKhoPnX-eVkIg-1" value="Student Profile Management" style="rounded=1;whiteSpace=wrap;html=1;fontSize=10;" vertex="1" parent="1">
          <mxGeometry x="860" y="-16.25" width="87" height="50" as="geometry" />
        </mxCell>
        <mxCell id="MFeHae9LS5_dGUs5y4kA-9" value="&amp;nbsp;University Programme Database" style="rounded=1;whiteSpace=wrap;html=1;dashed=1;fontSize=10;" vertex="1" parent="1">
          <mxGeometry x="176" y="363.75" width="80" height="46" as="geometry" />
        </mxCell>
        <mxCell id="82ooKmcnw_skvJ22mwl0-3" value="Student Record Changes Management" style="rounded=1;whiteSpace=wrap;html=1;fontSize=10;" vertex="1" parent="1">
          <mxGeometry x="323" y="-10" width="95" height="50" as="geometry" />
        </mxCell>
        <mxCell id="82ooKmcnw_skvJ22mwl0-4" value="" style="endArrow=classic;html=1;rounded=0;entryX=0.5;entryY=0;entryDx=0;entryDy=0;dashed=1;strokeWidth=2;" edge="1" parent="1" target="gf2tkm5U6kBsz2PE50tO-6">
          <mxGeometry width="50" height="50" relative="1" as="geometry">
            <mxPoint x="150" y="30" as="sourcePoint" />
            <mxPoint x="200" y="-20" as="targetPoint" />
          </mxGeometry>
        </mxCell>
        <mxCell id="82ooKmcnw_skvJ22mwl0-5" value="" style="endArrow=classic;startArrow=classic;html=1;rounded=0;dashed=1;" edge="1" parent="1">
          <mxGeometry width="50" height="50" relative="1" as="geometry">
            <mxPoint x="106" y="373.75" as="sourcePoint" />
            <mxPoint x="156" y="323.75" as="targetPoint" />
          </mxGeometry>
        </mxCell>
        <mxCell id="82ooKmcnw_skvJ22mwl0-6" value="" style="endArrow=classic;startArrow=classic;html=1;rounded=0;dashed=1;" edge="1" parent="1" source="MFeHae9LS5_dGUs5y4kA-9">
          <mxGeometry width="50" height="50" relative="1" as="geometry">
            <mxPoint x="116" y="373.75" as="sourcePoint" />
            <mxPoint x="166" y="323.75" as="targetPoint" />
          </mxGeometry>
        </mxCell>
        <mxCell id="82ooKmcnw_skvJ22mwl0-11" value="" style="endArrow=classic;html=1;rounded=0;dashed=1;exitX=0.25;exitY=1;exitDx=0;exitDy=0;strokeWidth=2;entryX=0.5;entryY=0;entryDx=0;entryDy=0;" edge="1" parent="1" target="P3KmuDMrMunuuuSJQMUj-40">
          <mxGeometry width="50" height="50" relative="1" as="geometry">
            <mxPoint x="474.25" y="33.75" as="sourcePoint" />
            <mxPoint x="430" y="238.75" as="targetPoint" />
          </mxGeometry>
        </mxCell>
        <mxCell id="txo1UYpimrwUv5Up8bq3-5" value="Monitor" style="rounded=1;whiteSpace=wrap;html=1;fontSize=10;" vertex="1" parent="1">
          <mxGeometry x="309.5" y="218" width="67" height="42" as="geometry" />
        </mxCell>
        <mxCell id="txo1UYpimrwUv5Up8bq3-6" value="Student Record Database" style="rounded=1;whiteSpace=wrap;html=1;dashed=1;fontSize=10;" vertex="1" parent="1">
          <mxGeometry x="268.5" y="373.75" width="80" height="46" as="geometry" />
        </mxCell>
        <mxCell id="txo1UYpimrwUv5Up8bq3-7" value="" style="endArrow=classic;startArrow=classic;html=1;rounded=0;dashed=1;" edge="1" parent="1" source="txo1UYpimrwUv5Up8bq3-6">
          <mxGeometry width="50" height="50" relative="1" as="geometry">
            <mxPoint x="246" y="363.75" as="sourcePoint" />
            <mxPoint x="296" y="313.75" as="targetPoint" />
          </mxGeometry>
        </mxCell>
        <mxCell id="txo1UYpimrwUv5Up8bq3-10" value="Student Record Changes Management Service" style="rounded=1;whiteSpace=wrap;html=1;fontSize=10;" vertex="1" parent="1">
          <mxGeometry x="459" y="303.75" width="97" height="40" as="geometry" />
        </mxCell>
        <mxCell id="txo1UYpimrwUv5Up8bq3-12" value="Student Record Changes Management Database" style="rounded=1;whiteSpace=wrap;html=1;dashed=1;fontSize=10;" vertex="1" parent="1">
          <mxGeometry x="378.5" y="383.75" width="72.5" height="50" as="geometry" />
        </mxCell>
        <mxCell id="txo1UYpimrwUv5Up8bq3-13" value="Admin Staff Records Profile Data" style="rounded=1;whiteSpace=wrap;html=1;dashed=1;fontSize=10;" vertex="1" parent="1">
          <mxGeometry x="603.5" y="100" width="67" height="50" as="geometry" />
        </mxCell>
        <mxCell id="txo1UYpimrwUv5Up8bq3-14" value="" style="endArrow=classic;startArrow=classic;html=1;rounded=0;exitX=0.5;exitY=0;exitDx=0;exitDy=0;dashed=1;" edge="1" parent="1" source="txo1UYpimrwUv5Up8bq3-13">
          <mxGeometry width="50" height="50" relative="1" as="geometry">
            <mxPoint x="550" y="80" as="sourcePoint" />
            <mxPoint x="600" y="30" as="targetPoint" />
          </mxGeometry>
        </mxCell>
        <mxCell id="txo1UYpimrwUv5Up8bq3-15" value="" style="endArrow=classic;html=1;rounded=0;dashed=1;exitX=0.25;exitY=1;exitDx=0;exitDy=0;strokeWidth=2;entryX=0.5;entryY=0;entryDx=0;entryDy=0;" edge="1" parent="1" target="_s_I2yqN7a8-muY6BJTi-6">
          <mxGeometry width="50" height="50" relative="1" as="geometry">
            <mxPoint x="571" y="30" as="sourcePoint" />
            <mxPoint x="527" y="235" as="targetPoint" />
            <Array as="points" />
          </mxGeometry>
        </mxCell>
        <mxCell id="txo1UYpimrwUv5Up8bq3-16" value="" style="endArrow=classic;html=1;rounded=0;dashed=1;entryX=0.418;entryY=-0.1;entryDx=0;entryDy=0;entryPerimeter=0;" edge="1" parent="1" target="txo1UYpimrwUv5Up8bq3-10">
          <mxGeometry width="50" height="50" relative="1" as="geometry">
            <mxPoint x="390" y="40" as="sourcePoint" />
            <mxPoint x="500" y="290" as="targetPoint" />
          </mxGeometry>
        </mxCell>
        <mxCell id="txo1UYpimrwUv5Up8bq3-17" value="Admin Staff Records Management Database" style="rounded=1;whiteSpace=wrap;html=1;dashed=1;fontSize=10;" vertex="1" parent="1">
          <mxGeometry x="492.25" y="393.75" width="72.5" height="50" as="geometry" />
        </mxCell>
        <mxCell id="txo1UYpimrwUv5Up8bq3-20" value="" style="endArrow=classic;startArrow=classic;html=1;rounded=0;dashed=1;exitX=0.655;exitY=0.04;exitDx=0;exitDy=0;exitPerimeter=0;" edge="1" parent="1" source="txo1UYpimrwUv5Up8bq3-12">
          <mxGeometry width="50" height="50" relative="1" as="geometry">
            <mxPoint x="511" y="387.75" as="sourcePoint" />
            <mxPoint x="491" y="343.75" as="targetPoint" />
          </mxGeometry>
        </mxCell>
        <mxCell id="txo1UYpimrwUv5Up8bq3-24" value="Timetable Manangement Database" style="rounded=1;whiteSpace=wrap;html=1;dashed=1;fontSize=10;" vertex="1" parent="1">
          <mxGeometry x="584" y="393.75" width="72.5" height="50" as="geometry" />
        </mxCell>
        <mxCell id="txo1UYpimrwUv5Up8bq3-25" value="Module Management Database" style="rounded=1;whiteSpace=wrap;html=1;dashed=1;fontSize=10;" vertex="1" parent="1">
          <mxGeometry x="696" y="397.75" width="72.5" height="50" as="geometry" />
        </mxCell>
        <mxCell id="txo1UYpimrwUv5Up8bq3-26" value="" style="endArrow=classic;startArrow=classic;html=1;rounded=0;dashed=1;exitX=0.25;exitY=0;exitDx=0;exitDy=0;entryX=0.633;entryY=0.95;entryDx=0;entryDy=0;entryPerimeter=0;" edge="1" parent="1" source="txo1UYpimrwUv5Up8bq3-25" target="txo1UYpimrwUv5Up8bq3-22">
          <mxGeometry width="50" height="50" relative="1" as="geometry">
            <mxPoint x="831.5" y="422.5" as="sourcePoint" />
            <mxPoint x="798.5" y="355.75" as="targetPoint" />
          </mxGeometry>
        </mxCell>
        <mxCell id="txo1UYpimrwUv5Up8bq3-27" value="" style="endArrow=classic;startArrow=classic;html=1;rounded=0;dashed=1;" edge="1" parent="1" source="txo1UYpimrwUv5Up8bq3-24">
          <mxGeometry width="50" height="50" relative="1" as="geometry">
            <mxPoint x="806.5" y="428.38" as="sourcePoint" />
            <mxPoint x="688.5" y="366.75" as="targetPoint" />
          </mxGeometry>
        </mxCell>
        <mxCell id="txo1UYpimrwUv5Up8bq3-28" value="" style="endArrow=classic;html=1;rounded=0;dashed=1;entryX=0.75;entryY=0;entryDx=0;entryDy=0;" edge="1" parent="1" target="_s_I2yqN7a8-muY6BJTi-8">
          <mxGeometry width="50" height="50" relative="1" as="geometry">
            <mxPoint x="798.75" y="30" as="sourcePoint" />
            <mxPoint x="773.75" y="238.75" as="targetPoint" />
          </mxGeometry>
        </mxCell>
        <mxCell id="txo1UYpimrwUv5Up8bq3-29" value="Tutor Profile Management Database" style="rounded=1;whiteSpace=wrap;html=1;dashed=1;fontSize=10;" vertex="1" parent="1">
          <mxGeometry x="786" y="397.75" width="72.5" height="50" as="geometry" />
        </mxCell>
        <mxCell id="txo1UYpimrwUv5Up8bq3-30" value="" style="endArrow=classic;startArrow=classic;html=1;rounded=0;dashed=1;exitX=0.25;exitY=0;exitDx=0;exitDy=0;entryX=0.376;entryY=1.125;entryDx=0;entryDy=0;entryPerimeter=0;" edge="1" parent="1" source="txo1UYpimrwUv5Up8bq3-29" target="_s_I2yqN7a8-muY6BJTi-8">
          <mxGeometry width="50" height="50" relative="1" as="geometry">
            <mxPoint x="976.5" y="421.5" as="sourcePoint" />
            <mxPoint x="928.5" y="359.75" as="targetPoint" />
          </mxGeometry>
        </mxCell>
        <mxCell id="txo1UYpimrwUv5Up8bq3-31" value="" style="endArrow=classic;html=1;rounded=0;dashed=1;entryX=0.578;entryY=-0.006;entryDx=0;entryDy=0;entryPerimeter=0;" edge="1" parent="1" target="txo1UYpimrwUv5Up8bq3-2">
          <mxGeometry width="50" height="50" relative="1" as="geometry">
            <mxPoint x="907.75" y="33.75" as="sourcePoint" />
            <mxPoint x="947" y="243.75" as="targetPoint" />
          </mxGeometry>
        </mxCell>
        <mxCell id="qs96xovSQpzG6TSrDEYq-13" style="rounded=0;orthogonalLoop=1;jettySize=auto;html=1;exitX=0.5;exitY=1;exitDx=0;exitDy=0;dashed=1;" edge="1" parent="1" source="txo1UYpimrwUv5Up8bq3-32" target="qs96xovSQpzG6TSrDEYq-12">
          <mxGeometry relative="1" as="geometry" />
        </mxCell>
        <mxCell id="txo1UYpimrwUv5Up8bq3-32" value="Student Profile Management Database" style="rounded=1;whiteSpace=wrap;html=1;dashed=1;fontSize=10;" vertex="1" parent="1">
          <mxGeometry x="881" y="395.75" width="72.5" height="50" as="geometry" />
        </mxCell>
        <mxCell id="txo1UYpimrwUv5Up8bq3-33" value="Load Balancer" style="rounded=1;whiteSpace=wrap;html=1;fontSize=10;" vertex="1" parent="1">
          <mxGeometry x="603.5" y="252.75" width="100" height="21" as="geometry" />
        </mxCell>
        <mxCell id="txo1UYpimrwUv5Up8bq3-34" value="Monitor" style="rounded=1;whiteSpace=wrap;html=1;fontSize=10;" vertex="1" parent="1">
          <mxGeometry x="740" y="210" width="67" height="42" as="geometry" />
        </mxCell>
        <mxCell id="txo1UYpimrwUv5Up8bq3-35" value="" style="endArrow=classic;startArrow=classic;html=1;rounded=0;dashed=1;" edge="1" parent="1" source="txo1UYpimrwUv5Up8bq3-32">
          <mxGeometry width="50" height="50" relative="1" as="geometry">
            <mxPoint x="853.5" y="403.75" as="sourcePoint" />
            <mxPoint x="948.5" y="353.75" as="targetPoint" />
          </mxGeometry>
        </mxCell>
        <mxCell id="txo1UYpimrwUv5Up8bq3-38" value="" style="endArrow=classic;html=1;rounded=0;dashed=1;strokeWidth=2;entryX=0.5;entryY=0;entryDx=0;entryDy=0;" edge="1" parent="1" target="MFeHae9LS5_dGUs5y4kA-2">
          <mxGeometry width="50" height="50" relative="1" as="geometry">
            <mxPoint x="510" y="-75" as="sourcePoint" />
            <mxPoint x="397" y="168" as="targetPoint" />
          </mxGeometry>
        </mxCell>
        <mxCell id="txo1UYpimrwUv5Up8bq3-39" value="" style="endArrow=classic;html=1;rounded=0;dashed=1;strokeWidth=2;entryX=0.75;entryY=0;entryDx=0;entryDy=0;" edge="1" parent="1" target="dwM2Itb2zWTtOIo7dE9D-5">
          <mxGeometry width="50" height="50" relative="1" as="geometry">
            <mxPoint x="510" y="-70" as="sourcePoint" />
            <mxPoint x="208" y="-10" as="targetPoint" />
          </mxGeometry>
        </mxCell>
        <mxCell id="txo1UYpimrwUv5Up8bq3-41" value="" style="endArrow=classic;html=1;rounded=0;dashed=1;strokeWidth=2;entryX=0.75;entryY=0;entryDx=0;entryDy=0;" edge="1" parent="1" target="82ooKmcnw_skvJ22mwl0-3">
          <mxGeometry width="50" height="50" relative="1" as="geometry">
            <mxPoint x="510" y="-70" as="sourcePoint" />
            <mxPoint x="298" as="targetPoint" />
          </mxGeometry>
        </mxCell>
        <mxCell id="txo1UYpimrwUv5Up8bq3-43" value="" style="endArrow=classic;html=1;rounded=0;dashed=1;strokeWidth=2;entryX=0.75;entryY=0;entryDx=0;entryDy=0;" edge="1" parent="1" target="P3KmuDMrMunuuuSJQMUj-34">
          <mxGeometry width="50" height="50" relative="1" as="geometry">
            <mxPoint x="510" y="-70" as="sourcePoint" />
            <mxPoint x="404" as="targetPoint" />
          </mxGeometry>
        </mxCell>
        <mxCell id="txo1UYpimrwUv5Up8bq3-44" value="" style="endArrow=classic;html=1;rounded=0;dashed=1;strokeWidth=2;entryX=0.75;entryY=0;entryDx=0;entryDy=0;" edge="1" parent="1">
          <mxGeometry width="50" height="50" relative="1" as="geometry">
            <mxPoint x="510" y="-72" as="sourcePoint" />
            <mxPoint x="572.5" y="-12.5" as="targetPoint" />
          </mxGeometry>
        </mxCell>
        <mxCell id="txo1UYpimrwUv5Up8bq3-45" value="" style="endArrow=classic;html=1;rounded=0;dashed=1;strokeWidth=2;entryX=0.75;entryY=0;entryDx=0;entryDy=0;" edge="1" parent="1">
          <mxGeometry width="50" height="50" relative="1" as="geometry">
            <mxPoint x="510" y="-70" as="sourcePoint" />
            <mxPoint x="681" y="-12.5" as="targetPoint" />
          </mxGeometry>
        </mxCell>
        <mxCell id="txo1UYpimrwUv5Up8bq3-46" value="" style="endArrow=classic;html=1;rounded=0;dashed=1;strokeWidth=2;entryX=0.75;entryY=0;entryDx=0;entryDy=0;exitX=0.5;exitY=1;exitDx=0;exitDy=0;" edge="1" parent="1" source="iTjUPMfH0YsU74nxrO1I-1">
          <mxGeometry width="50" height="50" relative="1" as="geometry">
            <mxPoint x="556" y="-70" as="sourcePoint" />
            <mxPoint x="727" y="-12.5" as="targetPoint" />
          </mxGeometry>
        </mxCell>
        <mxCell id="txo1UYpimrwUv5Up8bq3-47" value="" style="endArrow=classic;html=1;rounded=0;dashed=1;strokeWidth=2;entryX=0.75;entryY=0;entryDx=0;entryDy=0;exitX=0.647;exitY=1;exitDx=0;exitDy=0;exitPerimeter=0;" edge="1" parent="1" source="iTjUPMfH0YsU74nxrO1I-1">
          <mxGeometry width="50" height="50" relative="1" as="geometry">
            <mxPoint x="695" y="-78.75" as="sourcePoint" />
            <mxPoint x="907" y="-16.25" as="targetPoint" />
          </mxGeometry>
        </mxCell>
        <mxCell id="txo1UYpimrwUv5Up8bq3-48" value="" style="endArrow=classic;html=1;rounded=0;dashed=1;strokeWidth=2;entryX=0.371;entryY=0.022;entryDx=0;entryDy=0;exitX=0.647;exitY=1;exitDx=0;exitDy=0;exitPerimeter=0;entryPerimeter=0;" edge="1" parent="1" target="dwM2Itb2zWTtOIo7dE9D-4">
          <mxGeometry width="50" height="50" relative="1" as="geometry">
            <mxPoint x="560" y="-65" as="sourcePoint" />
            <mxPoint x="917" y="-6.25" as="targetPoint" />
          </mxGeometry>
        </mxCell>
        <mxCell id="txo1UYpimrwUv5Up8bq3-49" value="" style="endArrow=classic;startArrow=classic;html=1;rounded=0;exitX=0;exitY=0.75;exitDx=0;exitDy=0;dashed=1;" edge="1" parent="1" source="P3KmuDMrMunuuuSJQMUj-35">
          <mxGeometry width="50" height="50" relative="1" as="geometry">
            <mxPoint x="120" y="80" as="sourcePoint" />
            <mxPoint x="170" y="30" as="targetPoint" />
          </mxGeometry>
        </mxCell>
        <mxCell id="txo1UYpimrwUv5Up8bq3-50" value="" style="endArrow=classic;startArrow=classic;html=1;rounded=0;exitX=0;exitY=0.25;exitDx=0;exitDy=0;dashed=1;" edge="1" parent="1" source="P3KmuDMrMunuuuSJQMUj-35">
          <mxGeometry width="50" height="50" relative="1" as="geometry">
            <mxPoint x="572.5" y="110" as="sourcePoint" />
            <mxPoint x="268.5" y="30" as="targetPoint" />
          </mxGeometry>
        </mxCell>
        <mxCell id="txo1UYpimrwUv5Up8bq3-51" value="" style="endArrow=classic;startArrow=classic;html=1;rounded=0;exitX=0.25;exitY=0;exitDx=0;exitDy=0;dashed=1;" edge="1" parent="1" source="P3KmuDMrMunuuuSJQMUj-35">
          <mxGeometry width="50" height="50" relative="1" as="geometry">
            <mxPoint x="360" y="90" as="sourcePoint" />
            <mxPoint x="410" y="40" as="targetPoint" />
          </mxGeometry>
        </mxCell>
        <mxCell id="txo1UYpimrwUv5Up8bq3-52" value="" style="endArrow=classic;startArrow=classic;html=1;rounded=0;dashed=1;" edge="1" parent="1">
          <mxGeometry width="50" height="50" relative="1" as="geometry">
            <mxPoint x="510" y="80" as="sourcePoint" />
            <mxPoint x="560" y="30" as="targetPoint" />
          </mxGeometry>
        </mxCell>
        <mxCell id="txo1UYpimrwUv5Up8bq3-53" value="" style="endArrow=classic;startArrow=classic;html=1;rounded=0;dashed=1;" edge="1" parent="1" source="P3KmuDMrMunuuuSJQMUj-35">
          <mxGeometry width="50" height="50" relative="1" as="geometry">
            <mxPoint x="450" y="80" as="sourcePoint" />
            <mxPoint x="500" y="30" as="targetPoint" />
          </mxGeometry>
        </mxCell>
        <mxCell id="txo1UYpimrwUv5Up8bq3-54" value="" style="endArrow=classic;startArrow=classic;html=1;rounded=0;exitX=1;exitY=0.5;exitDx=0;exitDy=0;dashed=1;" edge="1" parent="1" source="P3KmuDMrMunuuuSJQMUj-35">
          <mxGeometry width="50" height="50" relative="1" as="geometry">
            <mxPoint x="640" y="80" as="sourcePoint" />
            <mxPoint x="690" y="30" as="targetPoint" />
          </mxGeometry>
        </mxCell>
        <mxCell id="txo1UYpimrwUv5Up8bq3-55" value="" style="endArrow=classic;startArrow=classic;html=1;rounded=0;exitX=1;exitY=0.75;exitDx=0;exitDy=0;dashed=1;" edge="1" parent="1" source="P3KmuDMrMunuuuSJQMUj-35">
          <mxGeometry width="50" height="50" relative="1" as="geometry">
            <mxPoint x="640" y="100" as="sourcePoint" />
            <mxPoint x="793" y="30" as="targetPoint" />
          </mxGeometry>
        </mxCell>
        <mxCell id="txo1UYpimrwUv5Up8bq3-56" value="" style="endArrow=classic;startArrow=classic;html=1;rounded=0;exitX=1;exitY=0.75;exitDx=0;exitDy=0;dashed=1;entryX=0.172;entryY=1.045;entryDx=0;entryDy=0;entryPerimeter=0;" edge="1" parent="1" target="y1LTIAWiKhoPnX-eVkIg-1">
          <mxGeometry width="50" height="50" relative="1" as="geometry">
            <mxPoint x="547" y="120" as="sourcePoint" />
            <mxPoint x="803" y="40" as="targetPoint" />
          </mxGeometry>
        </mxCell>
        <mxCell id="txo1UYpimrwUv5Up8bq3-58" value="" style="endArrow=classic;html=1;rounded=0;entryX=0.618;entryY=-0.018;entryDx=0;entryDy=0;dashed=1;strokeWidth=2;exitX=0.75;exitY=1;exitDx=0;exitDy=0;entryPerimeter=0;" edge="1" parent="1" source="YnMg3uyIoXB1Riin64bl-1" target="gf2tkm5U6kBsz2PE50tO-6">
          <mxGeometry width="50" height="50" relative="1" as="geometry">
            <mxPoint x="160" y="40" as="sourcePoint" />
            <mxPoint x="161" y="283" as="targetPoint" />
          </mxGeometry>
        </mxCell>
        <mxCell id="txo1UYpimrwUv5Up8bq3-59" value="" style="endArrow=classic;html=1;rounded=0;dashed=1;strokeWidth=2;exitX=1;exitY=1;exitDx=0;exitDy=0;" edge="1" parent="1" source="txo1UYpimrwUv5Up8bq3-5" target="YEd23fb4mN3ygYEI0RXa-6">
          <mxGeometry width="50" height="50" relative="1" as="geometry">
            <mxPoint x="289" y="245" as="sourcePoint" />
            <mxPoint x="320" y="296" as="targetPoint" />
          </mxGeometry>
        </mxCell>
        <mxCell id="txo1UYpimrwUv5Up8bq3-62" value="" style="endArrow=classic;html=1;rounded=0;exitX=0.5;exitY=0;exitDx=0;exitDy=0;dashed=1;strokeWidth=2;entryX=1;entryY=0.75;entryDx=0;entryDy=0;" edge="1" parent="1" source="txo1UYpimrwUv5Up8bq3-5" target="YnMg3uyIoXB1Riin64bl-1">
          <mxGeometry width="50" height="50" relative="1" as="geometry">
            <mxPoint x="290" y="290" as="sourcePoint" />
            <mxPoint x="340" y="240" as="targetPoint" />
          </mxGeometry>
        </mxCell>
        <mxCell id="txo1UYpimrwUv5Up8bq3-63" value="" style="endArrow=classic;startArrow=classic;html=1;rounded=0;exitX=0.75;exitY=0;exitDx=0;exitDy=0;dashed=1;" edge="1" parent="1" source="txo1UYpimrwUv5Up8bq3-17">
          <mxGeometry width="50" height="50" relative="1" as="geometry">
            <mxPoint x="530" y="300" as="sourcePoint" />
            <mxPoint x="580" y="250" as="targetPoint" />
          </mxGeometry>
        </mxCell>
        <mxCell id="txo1UYpimrwUv5Up8bq3-64" value="" style="endArrow=classic;html=1;rounded=0;exitX=0.5;exitY=0;exitDx=0;exitDy=0;dashed=1;strokeWidth=2;entryX=0.5;entryY=0;entryDx=0;entryDy=0;" edge="1" parent="1" target="txo1UYpimrwUv5Up8bq3-33">
          <mxGeometry width="50" height="50" relative="1" as="geometry">
            <mxPoint x="740" y="224" as="sourcePoint" />
            <mxPoint x="690" y="170" as="targetPoint" />
          </mxGeometry>
        </mxCell>
        <mxCell id="txo1UYpimrwUv5Up8bq3-65" value="" style="endArrow=classic;html=1;rounded=0;exitX=0.5;exitY=1;exitDx=0;exitDy=0;dashed=1;strokeWidth=2;entryX=0.672;entryY=-0.124;entryDx=0;entryDy=0;entryPerimeter=0;" edge="1" parent="1" source="txo1UYpimrwUv5Up8bq3-34" target="_s_I2yqN7a8-muY6BJTi-9">
          <mxGeometry width="50" height="50" relative="1" as="geometry">
            <mxPoint x="750" y="234" as="sourcePoint" />
            <mxPoint x="664" y="263" as="targetPoint" />
          </mxGeometry>
        </mxCell>
        <mxCell id="txo1UYpimrwUv5Up8bq3-67" value="" style="rounded=0;whiteSpace=wrap;html=1;" vertex="1" parent="1">
          <mxGeometry x="477" y="670" width="215.25" height="175" as="geometry" />
        </mxCell>
        <mxCell id="txo1UYpimrwUv5Up8bq3-68" value="Tutor&amp;nbsp; GUI" style="text;html=1;align=center;verticalAlign=middle;whiteSpace=wrap;rounded=0;fontSize=12;" vertex="1" parent="1">
          <mxGeometry x="500" y="800" width="148.5" height="30" as="geometry" />
        </mxCell>
        <mxCell id="txo1UYpimrwUv5Up8bq3-72" value="Tutor Profile Management Service" style="rounded=1;whiteSpace=wrap;html=1;fontSize=10;" vertex="1" parent="1">
          <mxGeometry x="595.75" y="700" width="82.5" height="40" as="geometry" />
        </mxCell>
        <mxCell id="qs96xovSQpzG6TSrDEYq-1" value="" style="endArrow=classic;html=1;rounded=0;entryX=0;entryY=0.25;entryDx=0;entryDy=0;strokeWidth=2;dashed=1;" edge="1" parent="1" target="_s_I2yqN7a8-muY6BJTi-9">
          <mxGeometry width="50" height="50" relative="1" as="geometry">
            <mxPoint x="634" y="272.75" as="sourcePoint" />
            <mxPoint x="684" y="222.75" as="targetPoint" />
          </mxGeometry>
        </mxCell>
        <mxCell id="qs96xovSQpzG6TSrDEYq-2" value="Student Record Management Service" style="rounded=1;whiteSpace=wrap;html=1;fontSize=10;" vertex="1" parent="1">
          <mxGeometry x="857" y="700" width="90" height="40" as="geometry" />
        </mxCell>
        <mxCell id="qs96xovSQpzG6TSrDEYq-6" value="" style="endArrow=classic;html=1;rounded=0;strokeWidth=2;dashed=1;" edge="1" parent="1" source="dwM2Itb2zWTtOIo7dE9D-3">
          <mxGeometry width="50" height="50" relative="1" as="geometry">
            <mxPoint x="750" y="210" as="sourcePoint" />
            <mxPoint x="660" y="250" as="targetPoint" />
          </mxGeometry>
        </mxCell>
        <mxCell id="qs96xovSQpzG6TSrDEYq-7" value="" style="endArrow=classic;html=1;rounded=0;entryX=1;entryY=1;entryDx=0;entryDy=0;strokeWidth=2;dashed=1;" edge="1" parent="1" target="bpr8gSbdeEr4EQAaBBP3-1">
          <mxGeometry width="50" height="50" relative="1" as="geometry">
            <mxPoint x="240" y="30" as="sourcePoint" />
            <mxPoint x="290" y="-20" as="targetPoint" />
          </mxGeometry>
        </mxCell>
        <mxCell id="qs96xovSQpzG6TSrDEYq-12" value="Student Record Manager" style="rounded=1;whiteSpace=wrap;html=1;" vertex="1" parent="1">
          <mxGeometry x="863.5" y="550" width="90" height="40" as="geometry" />
        </mxCell>
        <mxCell id="qs96xovSQpzG6TSrDEYq-14" style="rounded=0;orthogonalLoop=1;jettySize=auto;html=1;exitX=0.5;exitY=1;exitDx=0;exitDy=0;entryX=0.358;entryY=-0.034;entryDx=0;entryDy=0;entryPerimeter=0;dashed=1;strokeWidth=2;" edge="1" parent="1" source="qs96xovSQpzG6TSrDEYq-12" target="P3KmuDMrMunuuuSJQMUj-18">
          <mxGeometry relative="1" as="geometry" />
        </mxCell>
        <mxCell id="O47RJoYsDhB8UJ8X1mnz-1" value="Tutor Record Manager" style="rounded=1;whiteSpace=wrap;html=1;" vertex="1" parent="1">
          <mxGeometry x="678.5" y="550" width="90" height="40" as="geometry" />
        </mxCell>
        <mxCell id="O47RJoYsDhB8UJ8X1mnz-3" value="" style="endArrow=classic;html=1;rounded=0;dashed=1;strokeWidth=2;entryX=0.75;entryY=0;entryDx=0;entryDy=0;" edge="1" parent="1" target="txo1UYpimrwUv5Up8bq3-67">
          <mxGeometry width="50" height="50" relative="1" as="geometry">
            <mxPoint x="700" y="590" as="sourcePoint" />
            <mxPoint x="610" y="730" as="targetPoint" />
          </mxGeometry>
        </mxCell>
        <mxCell id="O47RJoYsDhB8UJ8X1mnz-4" value="" style="endArrow=classic;html=1;rounded=0;dashed=1;" edge="1" parent="1" target="O47RJoYsDhB8UJ8X1mnz-1">
          <mxGeometry width="50" height="50" relative="1" as="geometry">
            <mxPoint x="800" y="450" as="sourcePoint" />
            <mxPoint x="850" y="400" as="targetPoint" />
          </mxGeometry>
        </mxCell>
        <mxCell id="YnMg3uyIoXB1Riin64bl-1" value="Load Balancer" style="rounded=1;whiteSpace=wrap;html=1;fontSize=10;" vertex="1" parent="1">
          <mxGeometry x="166" y="212.25" width="100" height="21" as="geometry" />
        </mxCell>
      </root>
    </mxGraphModel>
  </diagram>
  <diagram id="eyyDFYq3E50KlaenBjBw" name="Functional Requirements">
    <mxGraphModel grid="1" page="1" gridSize="10" guides="1" tooltips="1" connect="1" arrows="1" fold="1" pageScale="1" pageWidth="1169" pageHeight="827" math="0" shadow="0">
      <root>
        <mxCell id="0" />
        <mxCell id="1" parent="0" />
        <mxCell id="LfZNqMJ2fBjEMARCYlTv-1" value="Service Name&#x9;University Account Manager&#xa;Description&#x9;Manages user accounts within the university system.&#xa;Provided Services&#x9;CreateAccount&#xa;Function&#x9;Create a new user account&#xa;Parameters&#x9;User ID, Name, Email, Role&#xa;Provided Services&#x9;UpdateAccount&#xa;Function&#x9;Update user account information&#xa;Parameters&#x9;User ID, Updated Data&#xa;Requested Services&#x9;VerifyAccount&#xa;Service&#x9;University Account Manager&#xa;Operation&#x9;Verify user account&#xa;Parameters&#x9;User ID&#xa;Reply&#x9;Verification status&#xa;Requested Services&#x9;SuspendAccount&#xa;Service&#x9;University Account Manager&#xa;Operation&#x9;Suspend a user account&#xa;Parameters&#x9;User ID&#xa;Reply&#x9;Suspension status&#xa;Provided Services&#x9;ResetPassword&#xa;Function&#x9;Reset user account password&#xa;Parameters&#x9;User ID&#xa;Requested Services&#x9;LogAccess&#xa;Service&#x9;University Account Manager&#xa;Operation&#x9;Log user access activity&#xa;Parameters&#x9;User ID, Access Details&#xa;Reply&#x9;Log confirmation" style="text;whiteSpace=wrap;html=1;" vertex="1" parent="1">
          <mxGeometry x="290" y="120" width="380" height="400" as="geometry" />
        </mxCell>
      </root>
    </mxGraphModel>
  </diagram>
  <diagram id="KObQYaE0eT84h8YJfb2Z" name="API Gateway Pattern">
    <mxGraphModel grid="1" page="1" gridSize="10" guides="1" tooltips="1" connect="1" arrows="1" fold="1" pageScale="1" pageWidth="1169" pageHeight="827" math="0" shadow="0">
      <root>
        <mxCell id="0" />
        <mxCell id="1" parent="0" />
        <mxCell id="HuCsB5mIbGZzgLm_d9kH-18" value="" style="rounded=1;whiteSpace=wrap;html=1;" vertex="1" parent="1">
          <mxGeometry x="620" y="170" width="120" height="60" as="geometry" />
        </mxCell>
        <mxCell id="HuCsB5mIbGZzgLm_d9kH-1" value="" style="image;aspect=fixed;html=1;points=[];align=center;fontSize=12;image=img/lib/azure2/general/Mobile.svg;" vertex="1" parent="1">
          <mxGeometry x="263" y="90" width="40" height="67" as="geometry" />
        </mxCell>
        <mxCell id="HuCsB5mIbGZzgLm_d9kH-2" value="" style="verticalLabelPosition=bottom;aspect=fixed;html=1;shape=mxgraph.salesforce.web;" vertex="1" parent="1">
          <mxGeometry x="250" y="260" width="60" height="47.400000000000006" as="geometry" />
        </mxCell>
        <mxCell id="HuCsB5mIbGZzgLm_d9kH-3" value="" style="verticalLabelPosition=bottom;sketch=0;aspect=fixed;html=1;verticalAlign=top;strokeColor=none;align=center;outlineConnect=0;shape=mxgraph.citrix.browser;" vertex="1" parent="1">
          <mxGeometry x="263" y="430" width="47.5" height="72.5" as="geometry" />
        </mxCell>
        <mxCell id="HuCsB5mIbGZzgLm_d9kH-4" value="WebApp" style="text;html=1;align=center;verticalAlign=middle;resizable=0;points=[];autosize=1;strokeColor=none;fillColor=none;" vertex="1" parent="1">
          <mxGeometry x="245" y="400" width="70" height="30" as="geometry" />
        </mxCell>
        <mxCell id="HuCsB5mIbGZzgLm_d9kH-7" value="Client Mobile App" style="text;html=1;align=center;verticalAlign=middle;whiteSpace=wrap;rounded=0;" vertex="1" parent="1">
          <mxGeometry x="250" y="50" width="60" height="30" as="geometry" />
        </mxCell>
        <mxCell id="HuCsB5mIbGZzgLm_d9kH-9" value="Client WebApp" style="text;html=1;align=center;verticalAlign=middle;whiteSpace=wrap;rounded=0;" vertex="1" parent="1">
          <mxGeometry x="243" y="220" width="60" height="30" as="geometry" />
        </mxCell>
        <mxCell id="HuCsB5mIbGZzgLm_d9kH-10" value="Javascript/Angular/Java" style="text;html=1;align=center;verticalAlign=middle;whiteSpace=wrap;rounded=0;" vertex="1" parent="1">
          <mxGeometry x="210" y="320" width="150" height="30" as="geometry" />
        </mxCell>
        <mxCell id="HuCsB5mIbGZzgLm_d9kH-11" value="HTML" style="text;html=1;align=center;verticalAlign=middle;whiteSpace=wrap;rounded=0;" vertex="1" parent="1">
          <mxGeometry x="257" y="510" width="60" height="30" as="geometry" />
        </mxCell>
        <mxCell id="HuCsB5mIbGZzgLm_d9kH-12" value="" style="rounded=0;whiteSpace=wrap;html=1;dashed=1;dashPattern=12 12;strokeWidth=2;" vertex="1" parent="1">
          <mxGeometry x="380" y="160" width="730" height="693" as="geometry" />
        </mxCell>
        <mxCell id="HuCsB5mIbGZzgLm_d9kH-19" value="" style="rounded=1;whiteSpace=wrap;html=1;" vertex="1" parent="1">
          <mxGeometry x="510" y="314" width="150" height="100" as="geometry" />
        </mxCell>
        <mxCell id="HuCsB5mIbGZzgLm_d9kH-17" value="" style="sketch=0;points=[[0,0,0],[0.25,0,0],[0.5,0,0],[0.75,0,0],[1,0,0],[0,1,0],[0.25,1,0],[0.5,1,0],[0.75,1,0],[1,1,0],[0,0.25,0],[0,0.5,0],[0,0.75,0],[1,0.25,0],[1,0.5,0],[1,0.75,0]];outlineConnect=0;fontColor=#232F3E;fillColor=#8C4FFF;strokeColor=#ffffff;dashed=0;verticalLabelPosition=bottom;verticalAlign=top;align=center;html=1;fontSize=12;fontStyle=0;aspect=fixed;shape=mxgraph.aws4.resourceIcon;resIcon=mxgraph.aws4.api_gateway;" vertex="1" parent="1">
          <mxGeometry x="540" y="350" width="40" height="40" as="geometry" />
        </mxCell>
        <mxCell id="HuCsB5mIbGZzgLm_d9kH-20" value="API Gateway" style="text;html=1;align=center;verticalAlign=middle;whiteSpace=wrap;rounded=0;" vertex="1" parent="1">
          <mxGeometry x="520" y="314" width="60" height="30" as="geometry" />
        </mxCell>
        <mxCell id="HuCsB5mIbGZzgLm_d9kH-21" value="Container" style="text;html=1;align=center;verticalAlign=middle;whiteSpace=wrap;rounded=0;" vertex="1" parent="1">
          <mxGeometry x="530" y="390" width="60" height="30" as="geometry" />
        </mxCell>
        <mxCell id="HuCsB5mIbGZzgLm_d9kH-22" value="" style="rounded=1;whiteSpace=wrap;html=1;" vertex="1" parent="1">
          <mxGeometry x="910" y="120" width="120" height="60" as="geometry" />
        </mxCell>
        <mxCell id="HuCsB5mIbGZzgLm_d9kH-23" value="" style="rounded=1;whiteSpace=wrap;html=1;" vertex="1" parent="1">
          <mxGeometry x="910" y="200" width="120" height="60" as="geometry" />
        </mxCell>
        <mxCell id="HuCsB5mIbGZzgLm_d9kH-24" value="" style="rounded=1;whiteSpace=wrap;html=1;" vertex="1" parent="1">
          <mxGeometry x="920" y="270" width="120" height="60" as="geometry" />
        </mxCell>
        <mxCell id="HuCsB5mIbGZzgLm_d9kH-25" value="" style="rounded=1;whiteSpace=wrap;html=1;" vertex="1" parent="1">
          <mxGeometry x="920" y="414" width="120" height="60" as="geometry" />
        </mxCell>
        <mxCell id="95OH2gxvxioMfSWidrUG-1" value="" style="rounded=1;whiteSpace=wrap;html=1;" vertex="1" parent="1">
          <mxGeometry x="920" y="520" width="120" height="60" as="geometry" />
        </mxCell>
        <mxCell id="95OH2gxvxioMfSWidrUG-2" value="" style="rounded=1;whiteSpace=wrap;html=1;" vertex="1" parent="1">
          <mxGeometry x="920" y="630" width="120" height="60" as="geometry" />
        </mxCell>
        <mxCell id="95OH2gxvxioMfSWidrUG-3" value="" style="rounded=1;whiteSpace=wrap;html=1;" vertex="1" parent="1">
          <mxGeometry x="920" y="740" width="120" height="60" as="geometry" />
        </mxCell>
      </root>
    </mxGraphModel>
  </diagram>
</mxfile>
